<?xml version="1.0" encoding="iso-8859-1"?>
<!-- Generator: Adobe Illustrator 19.0.0, SVG Export Plug-In . SVG Version: 6.00 Build 0)  -->
<svg version="1.1" id="Layer_1" xmlns="http://www.w3.org/2000/svg" xmlns:xlink="http://www.w3.org/1999/xlink" x="0px" y="0px"
	 viewBox="0 0 512 512" style="enable-background:new 0 0 512 512;" xml:space="preserve">
<polygon style="fill:#43B05C;" points="256.005,275.86 227.143,250.867 189.659,258.096 177.211,221.995 141.109,209.546 
	148.338,172.062 123.345,143.21 148.338,114.348 141.109,76.864 177.211,64.416 189.659,28.314 227.143,35.553 256.005,10.55 
	284.857,35.553 322.352,28.314 334.8,64.416 370.902,76.864 363.662,114.348 388.655,143.21 363.662,172.062 370.891,209.557 
	334.789,222.005 322.341,258.107 284.857,250.867 "/>
<polygon style="fill:#704324;" points="378.046,323.613 378.046,376.682 346.207,376.682 165.793,376.682 133.954,376.682 
	133.954,323.613 "/>
<rect x="165.796" y="376.678" style="fill:#A26234;" width="180.414" height="127.345"/>
<path d="M263.978,279.502l23.171-20.072l40.474,7.817l13.438-38.971l38.969-13.437l-7.805-40.484l26.978-31.144l-26.978-31.154
	l7.817-40.474l-38.971-13.437l-13.438-38.972l-40.484,7.817L256.006,0L224.85,26.99l-40.473-7.817l-13.438,38.972L131.97,71.583
	l7.805,40.474l-26.978,31.155l26.978,31.144l-7.805,40.473l38.969,13.437l13.437,38.969l40.474-7.806l23.182,20.074v36.137H125.981
	v69.015h31.839V512h196.36V384.655h31.839V315.64h-122.04V279.502z M229.435,242.306l-34.493,6.653l-11.46-33.235l-33.235-11.46
	l6.652-34.494l-23.007-26.56l23.007-26.569l-6.652-34.493l33.235-11.46l11.459-33.234l34.493,6.662l26.569-23.017l26.561,23.018
	l34.505-6.662l11.459,33.234l33.233,11.459l-6.661,34.492l23.008,26.57l-23.007,26.56l6.653,34.505l-33.235,11.46l-11.459,33.233
	l-34.494-6.662l-18.586,16.101v-53.53l40.113-40.113l-11.275-11.275l-28.837,28.838v-70.952h-15.946v33.809l-23.533-23.533
	l-11.275,11.275l34.809,34.808v90.678L229.435,242.306z M338.234,496.054H173.766v-68.951h87.544v-15.946h-87.544v-26.502h164.468
	V496.054z M370.073,368.709H141.927v-37.122h228.145V368.709z"/>
<rect x="277.227" y="411.153" width="21.23" height="15.946"/>
<g>
</g>
<g>
</g>
<g>
</g>
<g>
</g>
<g>
</g>
<g>
</g>
<g>
</g>
<g>
</g>
<g>
</g>
<g>
</g>
<g>
</g>
<g>
</g>
<g>
</g>
<g>
</g>
<g>
</g>
</svg>
