<?xml version="1.0" encoding="iso-8859-1"?>
<!-- Generator: Adobe Illustrator 17.1.0, SVG Export Plug-In . SVG Version: 6.00 Build 0)  -->
<!DOCTYPE svg PUBLIC "-//W3C//DTD SVG 1.1//EN" "http://www.w3.org/Graphics/SVG/1.1/DTD/svg11.dtd">
<svg version="1.1" id="Capa_1" xmlns="http://www.w3.org/2000/svg" xmlns:xlink="http://www.w3.org/1999/xlink" x="0px" y="0px"
	 viewBox="0 0 476.8 476.8" style="enable-background:new 0 0 476.8 476.8;" xml:space="preserve">
<path d="M287.059,312.571V39.765C287.059,17.838,269.22,0,247.294,0h-17.788c-21.926,0-39.765,17.838-39.765,39.765v31.546H173.4
	c-4.418,0-8,3.582-8,8s3.582,8,8,8h16.341v24.659H173.4c-4.418,0-8,3.582-8,8s3.582,8,8,8h16.341v24.659H173.4c-4.418,0-8,3.582-8,8
	s3.582,8,8,8h16.341v24.659H173.4c-4.418,0-8,3.582-8,8s3.582,8,8,8h16.341v24.659H173.4c-4.418,0-8,3.582-8,8s3.582,8,8,8h16.341
	v62.647c-25.017,16.332-40.659,44.588-40.659,74.888c0,49.25,40.068,89.317,89.318,89.317s89.318-40.067,89.318-89.317
	C327.718,356.843,311.989,328.799,287.059,312.571z M238.4,460.8c-40.428,0-73.318-32.89-73.318-73.317
	c0-28.137,16.425-54.138,41.844-66.239c3.989-1.899,5.684-6.673,3.784-10.662c-1.017-2.138-2.863-3.608-4.969-4.228V39.765
	c0-13.104,10.661-23.765,23.765-23.765h17.788c13.104,0,23.765,10.661,23.765,23.765v264.57c-0.957-0.376-1.92-0.743-2.895-1.088
	c-4.164-1.472-8.736,0.711-10.208,4.878c-1.472,4.166,0.712,8.736,4.878,10.208c29.239,10.332,48.884,38.121,48.884,69.15
	C311.718,427.91,278.828,460.8,238.4,460.8z M278.854,387.129c0,22.147-17.954,40.101-40.101,40.101s-40.101-17.954-40.101-40.101
	c0-17.258,10.903-31.966,26.195-37.621V116.423h27.106v232.84C267.613,354.722,278.854,369.609,278.854,387.129z"/>
<g>
</g>
<g>
</g>
<g>
</g>
<g>
</g>
<g>
</g>
<g>
</g>
<g>
</g>
<g>
</g>
<g>
</g>
<g>
</g>
<g>
</g>
<g>
</g>
<g>
</g>
<g>
</g>
<g>
</g>
</svg>
